<svg width="170" height="224" viewBox="0 0 170 224" fill="none" xmlns="http://www.w3.org/2000/svg">
<path d="M163.253 142.476C158.968 135.598 152.555 130.307 144.987 127.407C151.65 123.456 157.133 117.792 160.864 111.004C164.319 103.186 165.918 94.6738 165.536 86.1347C165.536 68.7826 160.677 56.2077 150.959 48.4098C141.264 40.6118 126.687 36.7129 107.332 36.7129H36.0273V187.753H71.8907V145.603H106.525C122.612 145.603 130.668 153.096 130.691 168.083C130.797 170.808 130.327 173.525 129.31 176.055C128.293 178.585 126.752 180.872 124.79 182.766C119.462 186.491 113.007 188.254 106.525 187.753H71.8907V223.582H108.421C127.705 223.582 142.564 219.191 153.172 210.409C163.779 201.628 169.154 188.14 169.154 170.085C169.679 160.521 167.642 150.99 163.253 142.476ZM105.717 113.603H71.8907V69.169H105.436C119.907 69.169 127.132 76.5571 127.108 91.3333C127.108 106.086 120.013 113.603 105.717 113.603Z" fill="#000000"/>
<path d="M36.0274 0.886719H0.164062V36.75H36.0274V0.886719Z" fill="#000000"/>
</svg>
