<svg width="57" height="57" viewBox="0 0 57 57" fill="none" xmlns="http://www.w3.org/2000/svg">
<circle cx="28.1354" cy="28.8647" r="27.3854" stroke="#9F938B" stroke-width="1.5"/>
<g clip-path="url(#clip0_2_102)">
<path d="M20.9566 24.183C21.4195 24.183 21.7948 23.8077 21.7948 23.3447C21.7948 22.8817 21.4195 22.5064 20.9566 22.5064C20.4936 22.5064 20.1183 22.8817 20.1183 23.3447C20.1183 23.8077 20.4936 24.183 20.9566 24.183Z" fill="#9F938B"/>
<path d="M31.5909 30.3874C31.4937 30.1366 31.2116 30.0117 30.9607 30.1089C30.4361 30.3119 29.9402 30.5852 29.4866 30.9211C29.2703 31.0812 29.2249 31.3863 29.385 31.6026C29.4805 31.7317 29.6277 31.7999 29.7769 31.7999C29.8776 31.7999 29.9793 31.7688 30.0665 31.7042C30.4499 31.4202 30.8691 31.1893 31.3124 31.0177C31.5633 30.9206 31.688 30.6383 31.5909 30.3874Z" fill="#9F938B"/>
<path d="M39.4855 36.1878C39.5046 33.8572 38.4246 31.4715 36.185 28.899C34.492 26.9543 32.3764 25.6652 29.8797 25.0532C29.307 24.9128 28.755 24.8344 28.1694 24.7747C28.1932 24.7771 28.3169 24.2057 28.3247 24.1442C28.3282 24.1167 28.3271 23.7875 28.3292 23.7874C29.4496 23.6921 30.7112 23.3864 31.9358 22.9096C33.5342 22.2873 34.9406 21.4341 35.896 20.5072C36.9553 19.4792 37.3578 18.4486 37.0295 17.6051C36.7033 16.767 35.7201 16.2809 34.2599 16.2344C34.2443 16.0957 34.2125 15.9611 34.1622 15.832C33.8239 14.9629 32.7798 14.4843 31.2224 14.4843C29.966 14.4843 28.4641 14.7997 26.9931 15.3723C25.3649 16.0062 23.9225 16.9022 23.0003 17.8469C22.7208 17.8947 22.4364 17.9611 22.1475 18.0468C20.562 18.5167 18.9275 19.5322 17.545 20.9061C17.3542 21.0958 17.3533 21.4043 17.5429 21.5952C17.7327 21.786 18.0411 21.787 18.232 21.5973C19.4836 20.3534 21.0116 19.3998 22.4244 18.9811C22.9489 18.8256 23.4972 18.731 24.0452 18.731C24.8781 18.731 25.6286 18.9535 26.281 19.393C26.2853 19.3959 26.2895 19.3988 26.2938 19.4017C26.4237 19.4909 26.5497 19.6224 26.7044 19.6751C26.8546 19.7261 27.026 19.7063 27.1549 19.6116C27.1557 19.611 27.1565 19.6107 27.1573 19.6101C27.4724 19.378 27.7992 19.162 28.137 18.9643C28.7207 18.6228 29.365 18.3129 30.0435 18.0487C30.0482 18.0469 30.0529 18.0452 30.0575 18.0433C31.3705 17.5338 32.7869 17.1676 34.205 17.2072C35.233 17.2359 35.9494 17.5167 36.1214 17.9584C36.2933 18.4 35.9554 19.0913 35.2173 19.8075C34.3533 20.646 33.0623 21.425 31.5822 22.0013C30.2829 22.5071 28.949 22.8054 27.8265 22.8411C27.5636 22.8494 27.3547 23.065 27.3547 23.328V24.0276C26.9837 25.7068 26.1483 26.9505 24.8711 27.7244C23.7839 28.3833 22.3708 28.675 20.8916 28.5459C18.3276 28.3223 16.1147 26.8926 16.0516 25.4216C16.0548 24.7723 16.3975 23.9241 17.0176 23.0318C17.1712 22.8109 17.1165 22.5072 16.8956 22.3537C16.6747 22.2001 16.371 22.2548 16.2174 22.4758C15.4714 23.5493 15.0771 24.5712 15.0771 25.4308C15.0771 25.4368 15.0772 25.4428 15.0774 25.4487C15.1498 27.4032 17.362 28.8604 19.7518 29.3602C18.5098 31.8038 18.8739 33.9625 19.4348 35.3867C19.8432 36.4239 20.4012 37.2105 20.7723 37.6644C19.1861 38.8065 18.3849 40.0635 18.5596 41.1633C18.7382 42.2871 19.8972 42.7757 20.92 42.7757C21.7418 42.7757 22.6829 42.524 23.6523 42.0367C24.9828 41.3678 26.3273 40.2707 27.5752 38.8413C27.6419 38.9681 27.7129 39.0922 27.7892 39.2128C27.749 39.2858 27.7237 39.3643 27.7146 39.4438C27.3277 39.7597 26.9792 40.1834 26.8324 40.6854C26.6109 41.4427 26.9593 42.2557 27.6333 42.6597C28.3346 43.0801 29.1386 43.2451 29.9517 43.2451C30.8788 43.245 31.8989 43.0287 33.0033 42.5966C33.1657 42.533 33.2664 42.3849 33.4536 42.3683C34.854 42.2438 36.246 41.6459 37.3343 40.7138C37.7331 40.9636 38.1957 41.0986 38.6716 41.0986C40.0627 41.0986 41.1944 39.9669 41.1944 38.5758C41.1945 37.4781 40.4956 36.5294 39.4855 36.1878ZM33.262 16.2657C33.2001 16.2711 33.1376 16.2773 33.075 16.284C33.0699 16.2846 33.0648 16.2851 33.0597 16.2857C30.9813 16.5201 28.9364 17.2657 27.1836 18.4067C27.1812 18.4083 27.179 18.4099 27.1766 18.4114C27.0728 18.4786 26.9708 18.5467 26.8713 18.6156C26.1883 18.1433 25.3889 17.8589 24.5632 17.7799C25.3297 17.2127 26.2929 16.6905 27.3465 16.2804C28.7076 15.7505 30.084 15.4588 31.2224 15.4588C32.3175 15.4588 33.0769 15.7304 33.254 16.1854C33.264 16.211 33.2722 16.2372 33.2786 16.2641C33.2732 16.2645 33.2676 16.2653 33.262 16.2657ZM36.9612 39.7383C35.9973 40.6718 34.6946 41.2754 33.3844 41.3961C33.0752 41.4048 32.8144 41.5658 32.5999 41.7079C30.9098 42.3604 29.4822 42.4457 28.3556 41.9614C27.9595 41.7908 27.6363 41.4082 27.7677 40.9589C27.8693 40.6116 28.1828 40.2873 28.5134 40.0633C29.4351 40.8192 30.8408 41.3851 30.9066 41.4113C31.1537 41.5099 31.4415 41.3852 31.5396 41.1392C31.6393 40.8893 31.5176 40.6059 31.2676 40.5062C30.8256 40.3298 29.5507 39.7414 28.9315 39.1315C28.9258 39.1248 28.9204 39.1173 28.9146 39.1108C28.5072 38.6522 28.2795 38.1381 28.1079 37.5697C27.7189 36.2816 27.8433 34.7866 28.5152 33.5139C28.6409 33.2759 28.5498 32.9812 28.3119 32.8555C28.074 32.7299 27.7792 32.821 27.6535 33.0589C27.1014 34.1048 26.8437 35.3343 26.9281 36.521C26.9602 36.9717 27.0392 37.407 27.1619 37.8216C25.4518 39.8794 22.9611 41.8128 20.9839 41.8124C20.7493 41.8124 20.5215 41.7851 20.3035 41.7277C19.9858 41.6438 19.5923 41.4513 19.5222 41.0106C19.425 40.3985 19.9642 39.3292 21.7695 38.164C21.894 38.0837 21.9748 37.9508 21.9896 37.8034C22.0046 37.6561 21.9513 37.5096 21.8455 37.406C21.8361 37.3968 20.8998 36.469 20.3286 34.9965C19.6132 33.1524 19.7637 31.3094 20.7739 29.5139C20.7849 29.5149 20.7959 29.5161 20.8068 29.517C21.0575 29.5389 21.3117 29.5502 21.5679 29.5502C23.9971 29.5501 26.5967 28.5266 27.8261 25.728C28.0097 25.3738 30.5686 26.2192 30.7939 26.3017C32.0963 26.7781 33.2927 27.5103 34.4509 28.5398C34.4547 28.5432 34.4587 28.5466 34.4626 28.5499C34.8312 28.857 35.1326 29.1583 35.4397 29.5269C35.442 29.5297 35.4443 29.5323 35.4466 29.5351C37.5597 31.9612 38.5618 34.1689 38.5102 36.2843C38.5101 36.2883 38.5101 36.2922 38.5101 36.2962C38.5101 37.605 37.8905 38.8383 36.9612 39.7383ZM38.6715 40.1239C38.4676 40.1239 38.2675 40.0836 38.082 40.0071C38.4585 39.5531 38.7683 39.0497 39.0036 38.5138C39.1072 38.2825 39.1952 38.0433 39.2681 37.7996C39.3257 37.607 39.3739 37.4116 39.413 37.2152C39.8999 37.4793 40.2199 37.9934 40.2199 38.5756C40.2199 39.4293 39.5253 40.1239 38.6715 40.1239Z" fill="#9F938B"/>
</g>
<defs>
<clipPath id="clip0_2_102">
<rect width="28.7607" height="28.7607" fill="white" transform="translate(13.7554 14.4843)"/>
</clipPath>
</defs>
</svg>
