<svg width="57" height="57" viewBox="0 0 57 57" fill="none" xmlns="http://www.w3.org/2000/svg">
<circle cx="28.1354" cy="28.8647" r="27.3854" stroke="#9F938B" stroke-width="1.5"/>
<path d="M32.0088 16.3268C32.0088 16.0601 31.9562 15.7959 31.8541 15.5495C31.7521 15.3031 31.6024 15.0792 31.4138 14.8906C31.2252 14.7019 31.0013 14.5523 30.7549 14.4502C30.5084 14.3482 30.2443 14.2956 29.9776 14.2956H20.2818C19.7496 14.2989 19.2401 14.5112 18.863 14.8867C18.4859 15.2622 18.2716 15.7709 18.2662 16.3031C18.2607 16.8352 18.4647 17.3481 18.834 17.7313C19.2033 18.1144 19.7084 18.3371 20.2404 18.3512V38.904C20.2393 39.891 20.5373 40.8552 21.0951 41.6696C21.6528 42.4839 22.4442 43.1102 23.3649 43.4659C24.2857 43.8216 25.2925 43.89 26.2529 43.6622C27.2133 43.4344 28.0821 42.9209 28.745 42.1896C29.4924 42.9352 30.439 43.4497 31.4712 43.6712C31.8571 43.7516 32.2503 43.7921 32.6444 43.7923C33.3735 43.7939 34.0956 43.6516 34.7696 43.3737C35.4436 43.0958 36.0561 42.6876 36.5721 42.1726C37.0881 41.6576 37.4974 41.0458 37.7767 40.3724C38.0559 39.6989 38.1995 38.977 38.1993 38.248C38.1698 37.126 37.8281 36.0345 37.2127 35.0959L33.2327 27.6991C33.1776 27.5928 33.0938 27.5041 32.991 27.4429C32.8881 27.3817 32.7701 27.3504 32.6505 27.3527C32.5311 27.3531 32.414 27.3861 32.3119 27.448C32.2098 27.5099 32.1265 27.5983 32.0708 27.704L30.0201 31.5933V18.3531C30.5505 18.342 31.0556 18.1238 31.4272 17.7451C31.7989 17.3664 32.0076 16.8574 32.0088 16.3268ZM25.1302 42.4773C24.1829 42.4762 23.2746 42.0994 22.6047 41.4295C21.9348 40.7596 21.558 39.8513 21.5569 38.904V18.3565H28.7036V34.0901C28.7036 34.0901 27.9773 35.4976 27.8418 35.7899V24.7689C27.8418 24.5944 27.7725 24.4269 27.6491 24.3035C27.5256 24.18 27.3582 24.1107 27.1836 24.1107H23.0773C22.9908 24.1106 22.9052 24.1276 22.8253 24.1607C22.7454 24.1938 22.6728 24.2422 22.6117 24.3034C22.5506 24.3645 22.5021 24.4371 22.469 24.517C22.436 24.5969 22.419 24.6825 22.419 24.7689V38.629C22.4179 39.2157 22.6074 39.7869 22.959 40.2566C23.3105 40.7263 23.805 41.0692 24.3682 41.2336C24.9314 41.3981 25.5328 41.3751 26.0818 41.1683C26.6309 40.9615 27.0979 40.582 27.4127 40.0869C27.54 40.4551 27.7073 40.8083 27.9114 41.1401C27.5775 41.557 27.1543 41.8936 26.6729 42.125C26.1915 42.3565 25.6644 42.4769 25.1302 42.4773ZM26.5254 25.4287V38.629C26.5284 38.8141 26.4946 38.998 26.4258 39.1699C26.3571 39.3418 26.2548 39.4983 26.125 39.6303C25.9952 39.7623 25.8404 39.8671 25.6696 39.9386C25.4988 40.0102 25.3156 40.047 25.1304 40.047C24.9453 40.047 24.762 40.0102 24.5913 39.9386C24.4205 39.8671 24.2657 39.7623 24.1359 39.6303C24.006 39.4983 23.9038 39.3418 23.835 39.1699C23.7663 38.998 23.7325 38.8141 23.7355 38.629V25.4287H26.5254ZM32.6591 29.4113L36.0606 35.7331C36.0651 35.7422 36.0701 35.7509 36.0756 35.7594C36.5696 36.4984 36.849 37.3598 36.8828 38.248C36.8838 38.877 36.7439 39.4984 36.4736 40.0664C36.2032 40.6344 35.8092 41.1347 35.3203 41.5306C34.8245 41.9304 34.2457 42.2143 33.626 42.3616C33.0064 42.509 32.3617 42.516 31.7391 42.3822C30.972 42.2161 30.2667 41.8389 29.7028 41.293C29.1388 40.7472 28.7388 40.0545 28.5479 39.2933C28.2236 37.9271 28.8112 36.7637 29.4344 35.5319L32.6591 29.4113ZM29.9787 17.04H20.2818C20.1844 17.0459 20.0869 17.0318 19.9953 16.9986C19.9036 16.9655 19.8196 16.9139 19.7486 16.8471C19.6776 16.7802 19.621 16.6996 19.5824 16.6101C19.5437 16.5206 19.5237 16.4241 19.5237 16.3266C19.5237 16.2291 19.5437 16.1326 19.5824 16.0431C19.621 15.9536 19.6776 15.873 19.7486 15.8062C19.8196 15.7393 19.9036 15.6878 19.9953 15.6546C20.0869 15.6214 20.1844 15.6073 20.2818 15.6133H29.9787C30.076 15.6073 30.1735 15.6214 30.2652 15.6546C30.3569 15.6878 30.4408 15.7393 30.5119 15.8062C30.5829 15.873 30.6394 15.9536 30.6781 16.0431C30.7168 16.1326 30.7367 16.2291 30.7367 16.3266C30.7367 16.4241 30.7168 16.5206 30.6781 16.6101C30.6394 16.6996 30.5829 16.7802 30.5119 16.8471C30.4408 16.9139 30.3569 16.9655 30.2652 16.9986C30.1735 17.0318 30.076 17.0459 29.9787 17.04Z" fill="#9F938B"/>
</svg>
